<svg width="35" height="35" viewBox="0 0 35 35" fill="none" xmlns="http://www.w3.org/2000/svg">
<path d="M17.5 35C27.165 35 35 27.165 35 17.5C35 7.83502 27.165 0 17.5 0C7.83502 0 0 7.83502 0 17.5C0 27.165 7.83502 35 17.5 35Z" fill="#F8F8F8"/>
<path d="M17.9678 14H22.9678" stroke="#004CFF" stroke-linecap="round"/>
<path d="M12 17H23" stroke="#004CFF" stroke-linecap="round"/>
<path d="M12 20H23" stroke="#004CFF" stroke-linecap="round"/>
<path d="M30 9.5C32.4853 9.5 34.5 7.48528 34.5 5C34.5 2.51472 32.4853 0.5 30 0.5C27.5147 0.5 25.5 2.51472 25.5 5C25.5 7.48528 27.5147 9.5 30 9.5Z" fill="#004CFF" stroke="white"/>
</svg>
