<svg width="35" height="35" viewBox="0 0 35 35" fill="none" xmlns="http://www.w3.org/2000/svg">
<path d="M17.5 35C27.165 35 35 27.165 35 17.5C35 7.83502 27.165 0 17.5 0C7.83502 0 0 7.83502 0 17.5C0 27.165 7.83502 35 17.5 35Z" fill="#F8F8F8"/>
<g clip-path="url(#clip0_2_6570)">
<path d="M19.75 17.5C19.75 17.945 19.618 18.38 19.3708 18.75C19.1236 19.12 18.7722 19.4084 18.361 19.5787C17.9499 19.749 17.4975 19.7936 17.061 19.7068C16.6246 19.6199 16.2237 19.4057 15.909 19.091C15.5943 18.7763 15.3801 18.3754 15.2932 17.939C15.2064 17.5025 15.251 17.0501 15.4213 16.639C15.5916 16.2278 15.88 15.8764 16.25 15.6292C16.62 15.382 17.055 15.25 17.5 15.25C18.0967 15.25 18.669 15.4871 19.091 15.909C19.5129 16.331 19.75 16.9033 19.75 17.5Z" stroke="#004BFE" stroke-linecap="round" stroke-linejoin="round"/>
<path d="M22.8821 19.6819C22.7852 19.9013 22.7562 20.1448 22.799 20.3807C22.8418 20.6167 22.9543 20.8345 23.1221 21.0059L23.1661 21.0499C23.439 21.3229 23.5923 21.693 23.5923 22.0789C23.5923 22.4649 23.439 22.835 23.1661 23.1079C22.8931 23.3809 22.523 23.5342 22.1371 23.5342C21.7511 23.5342 21.381 23.3809 21.1081 23.1079L21.0641 23.0639C20.894 22.8995 20.6794 22.7885 20.447 22.7447C20.2145 22.701 19.9743 22.7263 19.756 22.8176C19.5378 22.9089 19.3511 23.0621 19.219 23.2584C19.087 23.4547 19.0154 23.6854 19.0131 23.9219V24.0459C19.0031 24.4251 18.8455 24.7854 18.5738 25.05C18.3021 25.3147 17.9378 25.4628 17.5586 25.4628C17.1793 25.4628 16.815 25.3147 16.5433 25.05C16.2716 24.7854 16.114 24.4251 16.1041 24.0459V23.9799C16.0988 23.739 16.0211 23.5051 15.8811 23.3089C15.7411 23.1127 15.5452 22.9632 15.3191 22.8799C15.0997 22.7831 14.8562 22.7541 14.6203 22.7969C14.3843 22.8397 14.1665 22.9522 13.9951 23.1199L13.9511 23.1639C13.6781 23.4369 13.308 23.5902 12.9221 23.5902C12.5361 23.5902 12.166 23.4369 11.8931 23.1639C11.6201 22.891 11.4668 22.5209 11.4668 22.1349C11.4668 21.749 11.6201 21.3789 11.8931 21.1059L11.9371 21.0619C12.1015 20.8919 12.2125 20.6773 12.2563 20.4448C12.3 20.2124 12.2747 19.9722 12.1834 19.7539C12.0921 19.5357 11.9389 19.349 11.7426 19.2169C11.5463 19.0849 11.3156 19.0133 11.0791 19.0109H10.9551C10.7608 19.016 10.5676 18.9822 10.3866 18.9114C10.2057 18.8406 10.0408 18.7342 9.90165 18.5987C9.76248 18.4631 9.65187 18.3011 9.57635 18.122C9.50082 17.943 9.46191 17.7507 9.46191 17.5564C9.46191 17.3622 9.50082 17.1698 9.57635 16.9908C9.65187 16.8118 9.76248 16.6498 9.90165 16.5142C10.0408 16.3786 10.2057 16.2723 10.3866 16.2015C10.5676 16.1307 10.7608 16.0969 10.9551 16.1019H11.0201C11.261 16.0967 11.4949 16.019 11.6911 15.879C11.8873 15.739 12.0368 15.5431 12.1201 15.3169C12.2169 15.0975 12.2459 14.8541 12.2031 14.6181C12.1603 14.3821 12.0478 14.1644 11.8801 13.9929L11.8361 13.9489C11.6934 13.8156 11.5791 13.655 11.4999 13.4765C11.4207 13.2981 11.3782 13.1056 11.3749 12.9104C11.3717 12.7152 11.4077 12.5213 11.4809 12.3404C11.5542 12.1594 11.663 11.995 11.8011 11.857C11.9392 11.719 12.1036 11.6102 12.2846 11.537C12.4656 11.4639 12.6595 11.4279 12.8547 11.4313C13.0499 11.4347 13.2424 11.4773 13.4208 11.5566C13.5992 11.6359 13.7598 11.7503 13.8931 11.8929L13.9371 11.9369C14.1085 12.1047 14.3263 12.2172 14.5623 12.26C14.7982 12.3028 15.0417 12.2738 15.2611 12.1769H15.3191C15.5344 12.0846 15.718 11.9312 15.8472 11.7357C15.9764 11.5403 16.0455 11.3113 16.0461 11.0769V10.9549C16.056 10.5758 16.2136 10.2155 16.4853 9.95085C16.757 9.68619 17.1213 9.53809 17.5006 9.53809C17.8798 9.53809 18.2441 9.68619 18.5158 9.95085C18.7875 10.2155 18.9451 10.5758 18.9551 10.9549V11.0199C18.9574 11.2565 19.029 11.4872 19.161 11.6835C19.2931 11.8797 19.4798 12.033 19.698 12.1243C19.9163 12.2156 20.1565 12.2409 20.389 12.1971C20.6214 12.1534 20.836 12.0424 21.0061 11.8779L21.0501 11.8339C21.1852 11.6988 21.3456 11.5916 21.5222 11.5185C21.6987 11.4454 21.888 11.4077 22.0791 11.4077C22.2702 11.4077 22.4594 11.4454 22.6359 11.5185C22.8125 11.5916 22.9729 11.6988 23.1081 11.8339C23.2432 11.9691 23.3504 12.1295 23.4235 12.3061C23.4966 12.4826 23.5343 12.6718 23.5343 12.8629C23.5343 13.054 23.4966 13.2433 23.4235 13.4198C23.3504 13.5964 23.2432 13.7568 23.1081 13.8919L23.0641 13.9359C22.8963 14.1074 22.7838 14.3251 22.741 14.5611C22.6982 14.7971 22.7272 15.0405 22.8241 15.2599V15.3179C22.9164 15.5333 23.0698 15.7169 23.2653 15.8461C23.4607 15.9753 23.6897 16.0444 23.9241 16.0449H24.0481C24.4272 16.0549 24.7875 16.2125 25.0522 16.4842C25.3168 16.7559 25.4649 17.1202 25.4649 17.4994C25.4649 17.8787 25.3168 18.243 25.0522 18.5147C24.7875 18.7864 24.4272 18.944 24.0481 18.9539H23.9801C23.7457 18.9545 23.5167 19.0236 23.3213 19.1528C23.1258 19.282 22.9724 19.4656 22.8801 19.6809L22.8821 19.6819Z" stroke="#004BFE" stroke-linecap="round" stroke-linejoin="round"/>
</g>
<defs>
<clipPath id="clip0_2_6570">
<rect width="17" height="17" fill="white" transform="translate(9 9)"/>
</clipPath>
</defs>
</svg>
